<svg width="298" height="51" viewBox="0 0 298 51" fill="none" xmlns="http://www.w3.org/2000/svg">
<path d="M4.42969 34.1621L4.27148 35.5156C4.27148 36.9336 4.74609 37.9004 5.69531 38.416C6.02344 38.5918 6.41602 38.6797 6.87305 38.6797C7.33008 38.6797 7.74023 38.6035 8.10352 38.4512C8.4668 38.2871 8.76562 38.0762 9 37.8184C9.49219 37.291 9.73828 36.6816 9.73828 35.9902C9.73828 35.2988 9.59766 34.6719 9.31641 34.1094C9.03516 33.5469 8.68359 32.9844 8.26172 32.4219L6.85547 30.6992C5.71875 29.3398 4.95703 28.1035 4.57031 26.9902C4.18359 25.8652 3.99023 24.834 3.99023 23.8965C3.99023 22.959 4.10156 22.0742 4.32422 21.2422C4.55859 20.3984 4.88086 19.6016 5.29102 18.8516C5.70117 18.0898 6.19336 17.3926 6.76758 16.7598C7.3418 16.127 7.98047 15.582 8.68359 15.125C10.1484 14.1406 11.6016 13.6484 13.043 13.6484C14.4844 13.6484 15.6094 13.8477 16.418 14.2461C17.2266 14.6445 17.877 15.1484 18.3691 15.7578C19.2832 16.9062 19.7402 18.2949 19.7402 19.9238C19.7402 21.4355 19.3125 22.8594 18.457 24.1953C17.6719 25.4141 16.793 26.1875 15.8203 26.5156C15.6094 26.6211 15.3164 26.6738 14.9414 26.6738C14.5781 26.6738 14.2676 26.6211 14.0098 26.5156C13.7637 26.3984 13.5469 26.2461 13.3594 26.0586C12.9492 25.6484 12.7441 25.2031 12.7441 24.7227C12.7441 24.3945 12.8438 24.1777 13.043 24.0723C13.9336 23.5918 14.707 22.8945 15.3633 21.9805C16.0781 20.9844 16.4531 19.9941 16.4883 19.0098C16.5234 18.0137 16.2832 17.2812 15.7676 16.8125C15.2637 16.332 14.5898 16.0918 13.7461 16.0918C12.9023 16.0918 12.1406 16.2852 11.4609 16.6719C10.7812 17.0469 10.1953 17.5566 9.70312 18.2012C8.64844 19.584 8.12109 21.2188 8.12109 23.1055C8.12109 24.3594 8.55469 25.6836 9.42188 27.0781C9.78516 27.6758 10.1777 28.2676 10.5996 28.8535C11.0332 29.4277 11.4375 30.0195 11.8125 30.6289C12.668 32.0469 13.0957 33.3184 13.0957 34.4434C13.0957 35.5684 12.8906 36.5176 12.4805 37.291C12.082 38.0645 11.5488 38.7383 10.8809 39.3125C9.43945 40.5547 7.79883 41.1758 5.95898 41.1758C4.22461 41.1758 2.88867 40.6602 1.95117 39.6289C1.20117 38.7969 0.826172 37.8945 0.826172 36.9219C0.826172 35.8672 1.125 34.9766 1.72266 34.25C2.17969 33.6992 2.61914 33.3711 3.04102 33.2656C3.9668 33.0195 4.42969 33.3184 4.42969 34.1621ZM18.5273 34.8477C18.5742 33.8281 18.7441 32.8555 19.0371 31.9297C19.3301 30.9922 19.7227 30.0898 20.2148 29.2227C20.707 28.3438 21.2812 27.5176 21.9375 26.7441C22.6055 25.959 23.3262 25.2734 24.0996 24.6875C25.7754 23.4336 27.4688 22.8066 29.1797 22.8066C31.1836 22.8066 32.5195 23.6328 33.1875 25.2852C33.4219 25.8477 33.5332 26.5156 33.5215 27.2891C33.5098 28.0508 33.3633 28.7598 33.082 29.416C32.8008 30.0605 32.4082 30.6523 31.9043 31.1914C31.4121 31.7188 30.8203 32.1934 30.1289 32.6152C29.4492 33.0371 28.7051 33.3945 27.8965 33.6875C26.2324 34.2734 24.4512 34.5781 22.5527 34.6016C22.5059 34.7656 22.4766 35.0117 22.4648 35.3398C22.4531 35.668 22.4883 36.0371 22.5703 36.4473C22.6523 36.8457 22.793 37.2031 22.9922 37.5195C23.4141 38.2227 24.0234 38.5742 24.8203 38.5742C26.1797 38.5742 27.5039 38.1758 28.793 37.3789C29.25 37.1094 29.6191 36.834 29.9004 36.5527C30.1934 36.2598 30.4453 36.1133 30.6562 36.1133C30.8672 36.1133 31.0488 36.2422 31.2012 36.5C31.3652 36.7461 31.4473 37.0273 31.4473 37.3438C31.4473 37.9648 31.2715 38.5039 30.9199 38.9609C29.4434 40.4375 27.2461 41.1758 24.3281 41.1758C22.6055 41.1758 21.2227 40.6602 20.1797 39.6289C19.0078 38.457 18.457 36.8633 18.5273 34.8477ZM28.793 25.1445C27.5625 25.1445 26.3789 25.9883 25.2422 27.6758C24.2812 29.1289 23.5078 30.8516 22.9219 32.8438C24.8789 32.6445 26.5781 31.8711 28.0195 30.5234C29.3438 29.2578 30.0059 28.0449 30.0059 26.8848C30.0059 25.7246 29.6016 25.1445 28.793 25.1445ZM45.6328 37.168C43.8516 39.8398 41.877 41.1758 39.709 41.1758C37.752 41.1758 36.4336 40.1328 35.7539 38.0469C35.5195 37.332 35.4023 36.4531 35.4023 35.4102C35.4023 34.3672 35.5488 33.3242 35.8418 32.2812C36.1465 31.2266 36.5566 30.2305 37.0723 29.293C37.5879 28.3555 38.1914 27.4941 38.8828 26.709C39.5859 25.9121 40.3359 25.2266 41.1328 24.6523C42.7969 23.4219 44.4492 22.8066 46.0898 22.8066C47.7305 22.8066 48.9023 23.5742 49.6055 25.1094C49.7461 24.957 49.875 24.8047 49.9922 24.6523C50.1094 24.4883 50.2383 24.3359 50.3789 24.1953C50.6836 23.8906 50.9473 23.7383 51.1699 23.7383C51.4043 23.7383 51.6445 23.7793 51.8906 23.8613C52.1484 23.9434 52.3945 24.0547 52.6289 24.1953C53.2031 24.5352 53.4199 24.8516 53.2793 25.1445C52.6348 26.5391 52.0957 27.9102 51.6621 29.2578L49.0605 37.5547C47.0098 43.8477 44.4082 47.9141 41.2559 49.7539C40.4238 50.2461 39.7031 50.5273 39.0938 50.5977C38.4844 50.6797 38.0449 50.6855 37.7754 50.6152C37.5059 50.5449 37.2656 50.4453 37.0547 50.3164C36.5977 50.0234 36.3691 49.7598 36.3691 49.5254C36.3691 49.1152 36.6387 48.8633 37.1777 48.7695C37.7285 48.6758 38.3027 48.4531 38.9004 48.1016C39.498 47.7617 40.0664 47.3457 40.6055 46.8535C42.8203 44.8027 44.4961 41.5742 45.6328 37.168ZM40.3594 31.0684C40.0547 31.9121 39.8145 32.7793 39.6387 33.6699C39.4629 34.5488 39.375 35.2695 39.375 35.832C39.375 36.3945 39.3926 36.8223 39.4277 37.1152C39.4629 37.4082 39.5332 37.666 39.6387 37.8887C39.873 38.3809 40.2188 38.627 40.6758 38.627C41.1328 38.627 41.584 38.4688 42.0293 38.1523C42.4746 37.8242 42.9434 37.3789 43.4355 36.8164C43.9277 36.2539 44.4199 35.5918 44.9121 34.8301C45.4043 34.0684 45.873 33.248 46.3184 32.3691C47.3027 30.4238 47.9941 28.5664 48.3926 26.7969C48.334 26.4688 48.1348 26.1348 47.7949 25.7949C47.127 25.1504 46.5234 24.8281 45.9844 24.8281C45.4453 24.8281 44.9062 24.998 44.3672 25.3379C43.8281 25.666 43.3125 26.1172 42.8203 26.6914C42.3398 27.2539 41.8887 27.916 41.4668 28.6777C41.0449 29.4277 40.6758 30.2246 40.3594 31.0684ZM60.1348 38.9961C58.541 40.4023 57.2871 41.1055 56.373 41.1055C55.4707 41.1055 54.8438 40.6367 54.4922 39.6992C54.3633 39.3711 54.2988 39.0664 54.2988 38.7852C54.2988 38.0234 54.416 37.2852 54.6504 36.5703C54.8965 35.8555 55.1367 35.1875 55.3711 34.5664L56.918 30.5762C57.5156 28.9473 57.8789 27.8105 58.0078 27.166C58.1367 26.5215 58.1191 26.0879 57.9551 25.8652C57.791 25.6309 57.5977 25.4316 57.375 25.2676C57.1641 25.0918 56.959 24.9395 56.7598 24.8105C56.5723 24.6699 56.4785 24.5 56.4785 24.3008C56.4785 24.0898 56.5605 23.8906 56.7246 23.7031C56.9004 23.5156 57.1289 23.3516 57.4102 23.2109C57.9727 22.9414 58.5527 22.8066 59.1504 22.8066C59.7598 22.8066 60.2344 22.8711 60.5742 23C60.9258 23.1172 61.2129 23.2695 61.4355 23.457C61.8691 23.8438 62.0859 24.3125 62.0859 24.8633C62.0859 25.4023 61.9922 26.0117 61.8047 26.6914C61.6289 27.3711 61.4004 28.0918 61.1191 28.8535C60.8496 29.6152 60.5449 30.4062 60.2051 31.2266L59.2383 33.6523C58.4766 35.6094 58.0137 37.0742 57.8496 38.0469C58.9512 37.6719 60.4102 36.3242 62.2266 34.0039C64.207 31.4609 65.959 28.5605 67.4824 25.3027C67.6582 24.8926 67.875 24.6289 68.1328 24.5117C68.5547 24.3125 69.0879 24.2246 69.7324 24.248C70.752 24.2832 71.2793 24.5996 71.3145 25.1973C71.3379 25.5605 71.2383 25.9648 71.0156 26.4102C70.8047 26.8438 70.6289 27.207 70.4883 27.5L69.8027 28.9062C68.4316 31.6836 67.7461 33.9395 67.7461 35.6738C67.7461 36.8809 68.0742 37.707 68.7305 38.1523C68.918 38.293 69.2051 38.3633 69.5918 38.3633C69.9785 38.3633 70.4355 38.2285 70.9629 37.959C71.4902 37.6777 71.9941 37.2969 72.4746 36.8164C72.9551 36.3359 73.4004 35.7793 73.8105 35.1465C74.2324 34.502 74.5957 33.8164 74.9004 33.0898C75.5449 31.5547 75.8672 30.1953 75.8672 29.0117C75.8672 26.9844 75.4863 25.4902 74.7246 24.5293C74.4668 24.2246 74.543 23.8672 74.9531 23.457C75.3867 23.0234 76.0664 22.8066 76.9922 22.8066C78.1289 22.8066 78.9023 23.4453 79.3125 24.7227C79.4766 25.2031 79.5586 25.9238 79.5586 26.8848C79.5586 27.8457 79.3887 28.918 79.0488 30.1016C78.709 31.2734 78.2461 32.4043 77.6602 33.4941C77.0859 34.5723 76.418 35.5801 75.6562 36.5176C74.9062 37.4551 74.1152 38.2695 73.2832 38.9609C71.502 40.4375 69.8496 41.1758 68.3262 41.1758C65.7129 41.1758 64.4062 39.4883 64.4062 36.1133C64.4062 35.3398 64.4766 34.584 64.6172 33.8457C63.2344 35.8613 61.7402 37.5781 60.1348 38.9961ZM94.9219 36.3242C94.9219 37.4023 95.3027 37.9414 96.0645 37.9414C96.5918 37.9414 97.0254 37.8594 97.3652 37.6953C97.7168 37.5312 97.9512 37.4492 98.0684 37.4492C98.3145 37.4492 98.4375 37.5781 98.4375 37.8359C98.4375 38.8438 97.9102 39.7109 96.8555 40.4375C95.7422 41.1992 94.6055 41.3867 93.4453 41C92.6836 40.7305 92.1211 40.1504 91.7578 39.2598C91.582 38.8027 91.4941 38.3867 91.4941 38.0117C91.4941 37.4023 91.5527 36.7578 91.6699 36.0781C90.5801 38.3047 89.2266 39.8398 87.6094 40.6836C86.9648 41.0117 86.2793 41.1758 85.5527 41.1758C84.8262 41.1758 84.1934 41.0293 83.6543 40.7363C83.127 40.4316 82.6758 40.0156 82.3008 39.4883C81.5391 38.3867 81.1934 37.0039 81.2637 35.3398C81.334 33.2539 81.9492 31.209 83.1094 29.2051C84.1758 27.3301 85.5234 25.8008 87.1523 24.6172C88.7812 23.4102 90.3047 22.8066 91.7227 22.8066C93.1406 22.8066 94.2832 23.457 95.1504 24.7578C95.959 23.457 96.6738 22.8066 97.2949 22.8066C97.9629 22.8066 98.4668 22.9297 98.8066 23.1758C99.4512 23.6445 99.6797 24.0547 99.4922 24.4062C96.5508 30.4297 95.0391 34.1797 94.957 35.6562C94.9336 35.8672 94.9219 36.0898 94.9219 36.3242ZM85.166 36.3945C85.166 37.8008 85.6172 38.5039 86.5195 38.5039C87.2109 38.5039 88.0605 37.918 89.0684 36.7461C90.5449 35.0234 91.8516 32.7031 92.9883 29.7852C93.3516 28.8711 93.6562 27.957 93.9023 27.043C93.8555 26.2461 93.5215 25.6602 92.9004 25.2852C92.6895 25.1562 92.373 25.0918 91.9512 25.0918C91.541 25.0918 91.0547 25.2441 90.4922 25.5488C89.9414 25.8535 89.4023 26.2695 88.875 26.7969C88.3594 27.3242 87.873 27.9512 87.416 28.6777C86.9707 29.3926 86.5781 30.1719 86.2383 31.0156C85.5234 32.8203 85.166 34.6133 85.166 36.3945ZM100.934 40.5781C100.699 40.4023 100.512 40.209 100.371 39.998C100.23 39.7754 100.154 39.5879 100.143 39.4355C100.131 39.2715 100.16 39.0781 100.23 38.8555C100.312 38.6211 100.418 38.3398 100.547 38.0117C102.938 32.1289 104.133 28.1797 104.133 26.1641C104.098 25.6016 103.904 25.2031 103.553 24.9688L103.201 24.7227C103.096 24.6406 103.037 24.5 103.025 24.3008C103.025 24.0898 103.102 23.8906 103.254 23.7031C103.406 23.5156 103.605 23.3516 103.852 23.2109C104.355 22.9414 104.871 22.8066 105.398 22.8066C105.938 22.8066 106.354 22.8652 106.646 22.9824C106.951 23.0996 107.209 23.2578 107.42 23.457C107.865 23.8789 108.088 24.3242 108.088 24.793C108.1 25.2617 108.047 25.7363 107.93 26.2168C107.824 26.6973 107.695 27.1719 107.543 27.6406C107.391 28.0977 107.238 28.5371 107.086 28.959C106.934 29.3691 106.834 29.6738 106.787 29.873C106.693 30.2832 106.658 30.541 106.682 30.6465C106.963 30.4004 107.133 30.1602 107.191 29.9258L107.877 28.625C109.4 25.8828 110.889 24.0664 112.342 23.1758C112.764 22.9297 113.268 22.8066 113.854 22.8066C114.451 22.8066 114.932 23.0176 115.295 23.4395C115.658 23.8496 115.846 24.3066 115.857 24.8105C115.881 25.3145 115.846 25.7363 115.752 26.0762C115.67 26.4043 115.541 26.7148 115.365 27.0078C114.979 27.6641 114.51 27.9922 113.959 27.9922C113.807 27.9922 113.666 27.9395 113.537 27.834L113.15 27.5C112.764 27.1602 112.389 26.9902 112.025 26.9902C111.674 26.9902 111.24 27.2246 110.725 27.6934C110.221 28.1621 109.693 28.7656 109.143 29.5039C107.291 31.9531 105.779 34.6953 104.607 37.7305L103.834 39.7695C103.635 40.2734 103.459 40.6367 103.307 40.8594C103.154 41.0703 102.926 41.1758 102.621 41.1758C102.328 41.1758 102.029 41.1172 101.725 41C101.432 40.8945 101.168 40.7539 100.934 40.5781ZM115.734 34.8477C115.781 33.8281 115.951 32.8555 116.244 31.9297C116.537 30.9922 116.93 30.0898 117.422 29.2227C117.914 28.3438 118.488 27.5176 119.145 26.7441C119.812 25.959 120.533 25.2734 121.307 24.6875C122.982 23.4336 124.676 22.8066 126.387 22.8066C128.391 22.8066 129.727 23.6328 130.395 25.2852C130.629 25.8477 130.74 26.5156 130.729 27.2891C130.717 28.0508 130.57 28.7598 130.289 29.416C130.008 30.0605 129.615 30.6523 129.111 31.1914C128.619 31.7188 128.027 32.1934 127.336 32.6152C126.656 33.0371 125.912 33.3945 125.104 33.6875C123.439 34.2734 121.658 34.5781 119.76 34.6016C119.713 34.7656 119.684 35.0117 119.672 35.3398C119.66 35.668 119.695 36.0371 119.777 36.4473C119.859 36.8457 120 37.2031 120.199 37.5195C120.621 38.2227 121.23 38.5742 122.027 38.5742C123.387 38.5742 124.711 38.1758 126 37.3789C126.457 37.1094 126.826 36.834 127.107 36.5527C127.4 36.2598 127.652 36.1133 127.863 36.1133C128.074 36.1133 128.256 36.2422 128.408 36.5C128.572 36.7461 128.654 37.0273 128.654 37.3438C128.654 37.9648 128.479 38.5039 128.127 38.9609C126.65 40.4375 124.453 41.1758 121.535 41.1758C119.812 41.1758 118.43 40.6602 117.387 39.6289C116.215 38.457 115.664 36.8633 115.734 34.8477ZM126 25.1445C124.77 25.1445 123.586 25.9883 122.449 27.6758C121.488 29.1289 120.715 30.8516 120.129 32.8438C122.086 32.6445 123.785 31.8711 125.227 30.5234C126.551 29.2578 127.213 28.0449 127.213 26.8848C127.213 25.7246 126.809 25.1445 126 25.1445ZM144.352 38.3984C144.105 37.7422 143.994 36.9512 144.018 36.0254C144.041 35.0879 144.17 33.9629 144.404 32.6504C144.65 31.3379 145.02 29.9316 145.512 28.4316C146.648 24.9512 148.195 21.875 150.152 19.2031C150.492 18.7461 150.844 18.5176 151.207 18.5176C151.582 18.5176 151.945 18.5996 152.297 18.7637C152.66 18.9277 152.977 19.1211 153.246 19.3438C153.926 19.9062 154.148 20.3633 153.914 20.7148C152.262 23.3633 150.908 25.7539 149.854 27.8867C152.514 27.6992 154.857 26.8555 156.885 25.3555C159.1 23.7266 160.207 21.7461 160.207 19.4141C160.207 17.832 159.422 16.8242 157.852 16.3906C157.371 16.2617 156.797 16.1973 156.129 16.1973C155.473 16.1973 154.787 16.2676 154.072 16.4082C153.369 16.5371 152.689 16.7188 152.033 16.9531C150.732 17.4336 149.543 18.0664 148.465 18.8516C148.16 19.0742 147.879 19.1855 147.621 19.1855C147.363 19.1855 147.082 19.1211 146.777 18.9922C146.473 18.8516 146.203 18.6816 145.969 18.4824C145.055 17.709 145.184 16.9062 146.355 16.0742C148.055 14.8789 150.562 14.1055 153.879 13.7539C154.5 13.6953 155.326 13.666 156.357 13.666C157.4 13.666 158.461 13.8359 159.539 14.1758C160.629 14.5156 161.502 14.9727 162.158 15.5469C163.365 16.625 163.969 18.125 163.969 20.0469C163.969 21.7812 163.283 23.4922 161.912 25.1797C160.658 26.7383 159.041 28.0039 157.061 28.9766C158.01 29.3984 158.719 29.9902 159.188 30.752C159.668 31.502 159.896 32.3164 159.873 33.1953C159.85 34.0625 159.674 34.8652 159.346 35.6035C159.029 36.3301 158.596 36.9922 158.045 37.5898C157.506 38.1758 156.873 38.6973 156.146 39.1543C155.432 39.5996 154.676 39.9688 153.879 40.2617C152.25 40.8711 150.598 41.1758 148.922 41.1758C146.566 41.1758 145.043 40.25 144.352 38.3984ZM148.605 30.7344C147.715 32.9492 147.246 34.877 147.199 36.5176C147.176 37.3145 147.369 37.9297 147.779 38.3633C148.201 38.7852 148.775 38.9961 149.502 38.9961C150.229 38.9961 150.979 38.8379 151.752 38.5215C152.525 38.2051 153.234 37.7773 153.879 37.2383C155.355 35.9961 156.117 34.5898 156.164 33.0195C156.199 31.5898 155.555 30.6172 154.23 30.1016C153.832 29.9492 153.404 29.8496 152.947 29.8027C152.396 29.8262 151.623 29.9668 150.627 30.2246C149.643 30.4824 148.969 30.6523 148.605 30.7344ZM165.111 39.8047C164.619 39.3359 164.232 38.7441 163.951 38.0293C163.67 37.3027 163.523 36.4473 163.512 35.4629C163.5 34.4785 163.617 33.4824 163.863 32.4746C164.121 31.4668 164.479 30.4941 164.936 29.5566C165.404 28.6191 165.961 27.7402 166.605 26.9199C167.262 26.0996 167.982 25.3848 168.768 24.7754C170.479 23.4629 172.254 22.8066 174.094 22.8066C176.508 22.8066 178.143 23.8672 178.998 25.9883C179.607 27.5234 179.643 29.3809 179.104 31.5605C178.611 33.5645 177.709 35.4043 176.396 37.0801C175.096 38.7559 173.561 39.9453 171.791 40.6484C170.9 41 170.021 41.1758 169.154 41.1758C168.299 41.1758 167.531 41.0645 166.852 40.8418C166.184 40.6191 165.604 40.2734 165.111 39.8047ZM168.469 31.2793C168.117 32.1465 167.836 33.0371 167.625 33.9512C167.426 34.8652 167.332 35.7324 167.344 36.5527C167.355 37.3613 167.479 38 167.713 38.4688C167.959 38.9258 168.352 39.1543 168.891 39.1543C169.43 39.1543 169.957 38.9727 170.473 38.6094C171 38.2344 171.51 37.7422 172.002 37.1328C172.494 36.5234 172.957 35.8203 173.391 35.0234C173.824 34.2266 174.205 33.3945 174.533 32.5273C175.248 30.6406 175.594 28.9648 175.57 27.5C175.57 26.2109 175.307 25.3906 174.779 25.0391C174.568 24.8984 174.27 24.8281 173.883 24.8281C173.508 24.8281 173.074 25.0039 172.582 25.3555C172.09 25.6953 171.598 26.1582 171.105 26.7441C170.613 27.3301 170.139 28.0156 169.682 28.8008C169.225 29.5859 168.82 30.4121 168.469 31.2793ZM183.639 39.8047C183.146 39.3359 182.76 38.7441 182.479 38.0293C182.197 37.3027 182.051 36.4473 182.039 35.4629C182.027 34.4785 182.145 33.4824 182.391 32.4746C182.648 31.4668 183.006 30.4941 183.463 29.5566C183.932 28.6191 184.488 27.7402 185.133 26.9199C185.789 26.0996 186.51 25.3848 187.295 24.7754C189.006 23.4629 190.781 22.8066 192.621 22.8066C195.035 22.8066 196.67 23.8672 197.525 25.9883C198.135 27.5234 198.17 29.3809 197.631 31.5605C197.139 33.5645 196.236 35.4043 194.924 37.0801C193.623 38.7559 192.088 39.9453 190.318 40.6484C189.428 41 188.549 41.1758 187.682 41.1758C186.826 41.1758 186.059 41.0645 185.379 40.8418C184.711 40.6191 184.131 40.2734 183.639 39.8047ZM186.996 31.2793C186.645 32.1465 186.363 33.0371 186.152 33.9512C185.953 34.8652 185.859 35.7324 185.871 36.5527C185.883 37.3613 186.006 38 186.24 38.4688C186.486 38.9258 186.879 39.1543 187.418 39.1543C187.957 39.1543 188.484 38.9727 189 38.6094C189.527 38.2344 190.037 37.7422 190.529 37.1328C191.021 36.5234 191.484 35.8203 191.918 35.0234C192.352 34.2266 192.732 33.3945 193.061 32.5273C193.775 30.6406 194.121 28.9648 194.098 27.5C194.098 26.2109 193.834 25.3906 193.307 25.0391C193.096 24.8984 192.797 24.8281 192.41 24.8281C192.035 24.8281 191.602 25.0039 191.109 25.3555C190.617 25.6953 190.125 26.1582 189.633 26.7441C189.141 27.3301 188.666 28.0156 188.209 28.8008C187.752 29.5859 187.348 30.4121 186.996 31.2793ZM212.168 41.1582C209.508 41.1582 207.387 38.6328 205.805 33.582C205.184 34.7305 204.668 35.7734 204.258 36.7109L203.203 39.1016C202.898 39.7578 202.611 40.2676 202.342 40.6309C202.084 40.9941 201.791 41.1758 201.463 41.1758C201.135 41.1758 200.836 41.1172 200.566 41C200.297 40.8945 200.062 40.7539 199.863 40.5781C199.453 40.2031 199.248 39.793 199.248 39.3477C199.248 39.1719 199.371 38.8262 199.617 38.3105L200.32 36.8867C202.512 32.375 204.498 26.6562 206.279 19.7305C206.936 17.1758 207.41 14.8789 207.703 12.8398C207.832 11.8555 208.312 11.3633 209.145 11.3633C209.637 11.3633 210.047 11.4922 210.375 11.75C211.008 12.2539 211.312 12.7988 211.289 13.3848C211.266 13.959 211.184 14.6094 211.043 15.3359C210.914 16.0625 210.738 16.8594 210.516 17.7266C210.293 18.582 210.041 19.4785 209.76 20.416C208.998 22.8652 208.43 24.6113 208.055 25.6543L206.402 30.207C206.191 30.7461 206.027 31.1387 205.91 31.3848C208.629 30.3066 210.668 29.0879 212.027 27.7285C212.848 26.9082 213.258 26.1406 213.258 25.4258C213.258 25.0625 213.135 24.7988 212.889 24.6348C212.654 24.4707 212.49 24.3477 212.396 24.2656C212.314 24.1719 212.309 24.0137 212.379 23.791C212.461 23.5566 212.684 23.334 213.047 23.123C213.41 22.9121 213.85 22.8066 214.365 22.8066C214.881 22.8066 215.309 22.8535 215.648 22.9473C216 23.041 216.305 23.1875 216.562 23.3867C217.137 23.7969 217.424 24.377 217.424 25.127C217.424 25.877 217.266 26.5684 216.949 27.2012C216.633 27.8223 216.141 28.4258 215.473 29.0117C214.148 30.1367 212.027 31.2266 209.109 32.2812C209.473 33.8398 210.141 35.2109 211.113 36.3945C212.039 37.5195 212.889 38.082 213.662 38.082C214.072 38.082 214.424 38.0117 214.717 37.8711L215.35 37.5547C215.479 37.4844 215.602 37.4492 215.719 37.4492C216.012 37.4492 216.158 37.625 216.158 37.9766C216.158 38.2812 216.105 38.5508 216 38.7852C215.895 39.0078 215.742 39.248 215.543 39.5059C215.355 39.7637 215.109 40.0156 214.805 40.2617C214.043 40.8594 213.164 41.1582 212.168 41.1582Z" fill="#F00D5F"/>
<path d="M257.343 5.66449C257.341 5.66449 257.34 5.66449 257.339 5.66449C256.885 5.66449 256.458 5.84146 256.135 6.16308C255.809 6.48825 255.63 6.92122 255.63 7.38215V33.1382C255.63 34.0827 256.401 34.853 257.349 34.8554C261.347 34.8649 268.046 35.6982 272.667 40.5339V13.5795C272.667 13.2593 272.585 12.9586 272.431 12.7097C268.638 6.60187 261.35 5.67386 257.343 5.66449Z" fill="#F00D5F"/>
<path d="M292.371 33.1382V7.382C292.371 6.92107 292.191 6.4881 291.865 6.16292C291.543 5.84131 291.115 5.66434 290.662 5.66434C290.66 5.66434 290.659 5.66434 290.658 5.66434C286.651 5.67387 279.362 6.60188 275.57 12.7097C275.415 12.9586 275.334 13.2594 275.334 13.5795V40.5338C279.955 35.6981 286.653 34.8648 290.651 34.8552C291.599 34.8528 292.371 34.0825 292.371 33.1382Z" fill="#F00D5F"/>
<path d="M296.283 11.6042H295.037V33.1382C295.037 35.5497 293.072 37.5161 290.657 37.5221C287.266 37.5301 281.674 38.1933 277.714 41.9413C284.563 40.2644 291.783 41.3545 295.898 42.2922C296.412 42.4092 296.943 42.2883 297.355 41.9602C297.765 41.6329 298 41.1437 298 40.6186V13.3216C298 12.3747 297.23 11.6042 296.283 11.6042Z" fill="#F00D5F"/>
<path d="M252.963 33.1382V11.6042H251.717C250.771 11.6042 250 12.3747 250 13.3216V40.6182C250 41.1434 250.235 41.6325 250.645 41.9597C251.057 42.2876 251.587 42.409 252.102 42.2917C256.217 41.3538 263.437 40.2639 270.285 41.9408C266.326 38.1929 260.734 37.53 257.343 37.5219C254.928 37.5161 252.963 35.5497 252.963 33.1382Z" fill="#F00D5F"/>
</svg>
